Coordinates
version=1
nRows=13
nColumns=40
inDegrees=yes

Units are S.I. units (second, meters, Newtons, ...)
If the header above contains a line with 'inDegrees', this indicates whether rotational values are in degrees (yes) or radians (no).

endheader
time	pelvis_tilt	pelvis_list	pelvis_rotation	pelvis_tx	pelvis_ty	pelvis_tz	hip_flexion_r	hip_adduction_r	hip_rotation_r	knee_angle_r	knee_angle_r_beta	ankle_angle_r	subtalar_angle_r	mtp_angle_r	hip_flexion_l	hip_adduction_l	hip_rotation_l	knee_angle_l	knee_angle_l_beta	ankle_angle_l	subtalar_angle_l	mtp_angle_l	lumbar_extension	lumbar_bending	lumbar_rotation	arm_flex_r	arm_add_r	arm_rot_r	elbow_flex_r	pro_sup_r	wrist_flex_r	wrist_dev_r	arm_flex_l	arm_add_l	arm_rot_l	elbow_flex_l	pro_sup_l	wrist_flex_l	wrist_dev_l
      0.00000000	     20.13443410	      3.53522269	      4.97765339	     -0.07146342	      0.97931228	     -0.35499565	      1.49906662	     -5.45748641	    -11.87481067	     32.94103108	      0.57492945	     -4.78885022	      0.00000000	      0.00000000	    -28.01414983	      3.13396069	      6.03475251	      9.15649925	      0.15981106	     -5.72730177	      0.00000000	      0.00000000	    -33.84817809	     -1.72005030	     -7.98800479	     -1.90081644	    -16.40724190	      6.78112533	     44.06865713	     78.62588516	      0.00000000	      0.00000000	      6.98762718	    -27.18384261	     22.79623719	     54.34505651	     75.38110362	      0.00000000	      0.00000000
      0.00400000	     19.89541199	      3.68867338	      4.90263469	     -0.06688764	      0.97835529	     -0.35505266	      2.15206830	     -5.67127883	    -12.14031601	     32.10694960	      0.56037198	     -4.97120096	      0.00000000	      0.00000000	    -28.16023764	      3.32494989	      5.82941027	      9.02002979	      0.15742922	     -5.59530049	      0.00000000	      0.00000000	    -33.67529779	     -1.87336897	     -8.11854376	     -1.84370796	    -16.37840282	      6.71779741	     44.00003529	     78.62075297	      0.00000000	      0.00000000	      7.15615723	    -27.28160076	     22.86211613	     54.52830601	     75.32848237	      0.00000000	      0.00000000
      0.00800000	     19.72581013	      3.78767515	      4.83605185	     -0.06287541	      0.97743725	     -0.35524561	      2.80363135	     -5.82533518	    -12.37522557	     31.36001304	      0.54733548	     -5.07065757	      0.00000000	      0.00000000	    -28.31589082	      3.46757317	      5.69165340	      8.92265333	      0.15572968	     -5.48841215	      0.00000000	      0.00000000	    -33.65613061	     -1.95198626	     -8.19346848	     -1.73972538	    -16.37959180	      6.63813455	     43.98989942	     78.61059857	      0.00000000	      0.00000000	      7.33987665	    -27.40067769	     22.92658467	     54.84618664	     75.31202813	      0.00000000	      0.00000000
      0.01200000	     19.49617577	      3.88212610	      4.93592731	     -0.05833240	      0.97660303	     -0.35506214	      3.22133874	     -5.80980044	    -12.40492286	     30.00071189	      0.52361120	     -5.89708763	      0.00000000	      0.00000000	    -28.43679532	      3.47465246	      5.76286330	      8.81449988	      0.15384204	     -5.45207766	      0.00000000	      0.00000000	    -33.49534725	     -2.01495545	     -8.43185694	     -1.67798644	    -16.20816237	      6.33970230	     43.78358763	     78.55964352	      0.00000000	      0.00000000	      7.44297747	    -27.65320114	     23.11624501	     55.11658037	     75.21797545	      0.00000000	      0.00000000
      0.01600000	     19.41017610	      3.88788433	      5.08268716	     -0.05387083	      0.97590640	     -0.35511336	      3.50872135	     -5.75230637	    -12.78135209	     28.74407640	      0.50167877	     -6.46866633	      0.00000000	      0.00000000	    -28.67050970	      3.38479137	      5.71399689	      8.78378351	      0.15330594	     -5.30697013	      0.00000000	      0.00000000	    -33.49203215	     -1.92741745	     -8.60244854	     -1.62851997	    -16.08077835	      6.03400403	     43.71339120	     78.49518004	      0.00000000	      0.00000000	      7.74182090	    -27.74767998	     23.36201196	     55.14133831	     74.98807910	      0.00000000	      0.00000000
      0.02000000	     19.18888764	      3.98239113	      4.98542970	     -0.04910727	      0.97475894	     -0.35514592	      4.16165083	     -5.89206776	    -13.16720855	     27.98698085	      0.48846496	     -6.58155860	      0.00000000	      0.00000000	    -28.81917711	      3.52818634	      5.46910977	      8.70383689	      0.15191061	     -5.16247790	      0.00000000	      0.00000000	    -33.31501984	     -2.04222072	     -8.67492148	     -1.66773166	    -16.07809636	      5.92428852	     43.77429167	     78.49644148	      0.00000000	      0.00000000	      7.83720903	    -27.86527275	     23.43403882	     55.38166679	     74.95424376	      0.00000000	      0.00000000
      0.02400000	     18.99318823	      3.97176047	      5.00325175	     -0.04487887	      0.97384208	     -0.35509732	      4.63436363	     -5.80126050	    -13.27775402	     26.76394369	      0.46711894	     -7.30139529	      0.00000000	      0.00000000	    -28.93012057	      3.49623489	      5.40179611	      8.65788994	      0.15110869	     -5.01233827	      0.00000000	      0.00000000	    -33.24019032	     -1.99556887	     -8.71789362	     -1.53349657	    -15.97539775	      5.64826379	     43.57201196	     78.43013444	      0.00000000	      0.00000000	      8.10528355	    -27.96022446	     23.59400664	     55.48555925	     74.84661216	      0.00000000	      0.00000000
      0.02800000	     18.73881230	      4.09480648	      4.90369854	     -0.04023897	      0.97261449	     -0.35508933	      5.28714909	     -5.94028874	    -13.54520298	     25.95145113	      0.45293827	     -7.32040314	      0.00000000	      0.00000000	    -29.01810939	      3.66603342	      5.17368147	      8.61266489	      0.15031936	     -4.85706367	      0.00000000	      0.00000000	    -33.04445541	     -2.14032387	     -8.77933973	     -1.48365459	    -15.96930862	      5.60886216	     43.53943663	     78.40966263	      0.00000000	      0.00000000	      8.24207631	    -28.02360753	     23.66651390	     55.64840291	     74.84060495	      0.00000000	      0.00000000
      0.03200000	     18.55162369	      4.07345772	      4.83996252	     -0.03600460	      0.97163024	     -0.35479925	      5.77403004	     -5.78634030	    -13.45589397	     24.75977149	      0.43213953	     -8.00303533	      0.00000000	      0.00000000	    -29.07665638	      3.65108177	      4.98878918	      8.68653493	      0.15160864	     -4.68973410	      0.00000000	      0.00000000	    -32.95747249	     -2.14160337	     -8.79634716	     -1.21598819	    -15.86137241	      5.52649870	     43.12503474	     78.40189106	      0.00000000	      0.00000000	      8.48308426	    -28.14014137	     23.79816520	     55.73580485	     74.76994716	      0.00000000	      0.00000000
      0.03600000	     18.28466647	      4.19077288	      4.82160841	     -0.03134448	      0.97033402	     -0.35477501	      6.44283019	     -5.91053114	    -13.73345880	     23.98993585	      0.41870337	     -8.01756151	      0.00000000	      0.00000000	    -29.13217663	      3.76994103	      4.78457066	      8.67501519	      0.15140758	     -4.52291665	      0.00000000	      0.00000000	    -32.74721225	     -2.24733450	     -8.94904297	     -1.25022417	    -15.79888176	      5.36832312	     43.21676040	     78.36927199	      0.00000000	      0.00000000	      8.58279641	    -28.22836972	     23.81367938	     55.87576602	     74.75753248	      0.00000000	      0.00000000
      0.04000000	     18.08171831	      4.18689552	      4.74171032	     -0.02707228	      0.96919161	     -0.35430602	      6.93717782	     -5.76460125	    -13.57103836	     22.84749009	      0.39876393	     -8.49005905	      0.00000000	      0.00000000	    -29.17016314	      3.77226479	      4.67678100	      8.77265368	      0.15311169	     -4.26243362	      0.00000000	      0.00000000	    -32.67165747	     -2.28977602	     -8.91640131	     -1.17601941	    -15.64344279	      4.98683216	     43.13113821	     78.31293271	      0.00000000	      0.00000000	      8.80558678	    -28.34777884	     23.86743429	     56.05009136	     74.73837845	      0.00000000	      0.00000000
      0.04400000	     17.87699804	      4.20703134	      4.65217160	     -0.02264187	      0.96805460	     -0.35418664	      7.43150718	     -5.66334389	    -13.52396338	     21.74683582	      0.37955389	     -8.92037483	      0.00000000	      0.00000000	    -29.21000115	      3.82738021	      4.44374253	      8.88461351	      0.15506576	     -4.06196675	      0.00000000	      0.00000000	    -32.53848849	     -2.33156259	     -8.90212168	     -0.97071038	    -15.64510687	      5.06549354	     42.84706854	     78.24473545	      0.00000000	      0.00000000	      9.04687132	    -28.43586006	     24.08085653	     56.11062862	     74.73686477	      0.00000000	      0.00000000
      0.04800000	     17.68107313	      4.23670746	      4.65272929	     -0.01802989	      0.96692583	     -0.35401141	      7.88663602	     -5.59648942	    -13.60697929	     20.69440107	      0.36118544	     -9.21688494	      0.00000000	      0.00000000	    -29.24295088	      3.82776383	      4.20800918	      9.04148239	      0.15780364	     -3.89353605	      0.00000000	      0.00000000	    -32.41451848	     -2.34255257	     -8.99057599	     -0.90152911	    -15.55525559	      4.92781118	     42.73639336	     78.11579629	      0.00000000	      0.00000000	      9.26731533	    -28.52134714	     24.23019716	     56.12830789	     74.69117821	      0.00000000	      0.00000000
